<svg width="384" height="69" viewBox="0 0 384 69" fill="none" xmlns="http://www.w3.org/2000/svg">
<path d="M382.182 2.09833C380.62 0.536234 378.087 0.536234 376.525 2.09833C374.963 3.66043 374.963 6.19309 376.525 7.75518C378.087 9.31728 380.62 9.31728 382.182 7.75518C383.744 6.19309 383.744 3.66043 382.182 2.09833ZM319.354 64.9268L319.354 65.6768L319.664 65.6768L319.884 65.4571L319.354 64.9268ZM6.82842 62.0983C5.26633 60.5362 2.73366 60.5362 1.17157 62.0983C-0.390527 63.6604 -0.390527 66.1931 1.17157 67.7552C2.73366 69.3173 5.26633 69.3173 6.82842 67.7552C8.39052 66.1931 8.39052 63.6604 6.82842 62.0983ZM378.823 4.39643L318.823 64.3964L319.884 65.4571L379.884 5.45709L378.823 4.39643ZM319.354 64.1768L4 64.1768V65.6768L319.354 65.6768L319.354 64.1768Z" fill="#348479"/>
</svg>
