<svg width="384" height="69" viewBox="0 0 384 69" fill="none" xmlns="http://www.w3.org/2000/svg">
<path d="M1.67157 67.5052C3.23367 69.0673 5.76633 69.0673 7.32843 67.5052C8.89052 65.9431 8.89052 63.4104 7.32843 61.8483C5.76633 60.2862 3.23367 60.2862 1.67157 61.8483C0.109476 63.4104 0.109476 65.9431 1.67157 67.5052ZM64.5 4.67676L64.5 3.92676L64.1893 3.92676L63.9697 4.14643L64.5 4.67676ZM377.025 7.50519C378.587 9.06728 381.12 9.06728 382.682 7.50519C384.244 5.94309 384.244 3.41043 382.682 1.84833C381.12 0.286236 378.587 0.286236 377.025 1.84833C375.463 3.41043 375.463 5.94309 377.025 7.50519ZM5.03033 65.2071L65.0303 5.20709L63.9697 4.14643L3.96967 64.1464L5.03033 65.2071ZM64.5 5.42676L379.854 5.42677V3.92675L64.5 3.92676L64.5 5.42676Z" fill="#348479"/>
</svg>
