<svg width="384" height="69" viewBox="0 0 384 69" fill="none" xmlns="http://www.w3.org/2000/svg">
<path d="M1.17157 2.09833C2.73367 0.536234 5.26633 0.536234 6.82843 2.09833C8.39052 3.66043 8.39052 6.19309 6.82843 7.75518C5.26633 9.31728 2.73367 9.31728 1.17157 7.75518C-0.390524 6.19309 -0.390524 3.66043 1.17157 2.09833ZM64 64.9268L64 65.6768L63.6893 65.6768L63.4697 65.4571L64 64.9268ZM376.525 62.0983C378.087 60.5362 380.62 60.5362 382.182 62.0983C383.744 63.6604 383.744 66.1931 382.182 67.7552C380.62 69.3173 378.087 69.3173 376.525 67.7552C374.963 66.1931 374.963 63.6604 376.525 62.0983ZM4.53033 4.39643L64.5303 64.3964L63.4697 65.4571L3.46967 5.45709L4.53033 4.39643ZM64 64.1768L379.354 64.1768V65.6768L64 65.6768L64 64.1768Z" fill="#348479"/>
</svg>
