<svg width="384" height="69" viewBox="0 0 384 69" fill="none" xmlns="http://www.w3.org/2000/svg">
<path d="M382.682 67.5052C381.12 69.0673 378.587 69.0673 377.025 67.5052C375.463 65.9431 375.463 63.4104 377.025 61.8483C378.587 60.2862 381.12 60.2862 382.682 61.8483C384.244 63.4104 384.244 65.9431 382.682 67.5052ZM319.854 4.67676L319.854 3.92676L320.164 3.92676L320.384 4.14643L319.854 4.67676ZM7.32842 7.50519C5.76633 9.06728 3.23366 9.06728 1.67157 7.50519C0.109473 5.94309 0.109473 3.41043 1.67157 1.84833C3.23366 0.286236 5.76633 0.286236 7.32842 1.84833C8.89052 3.41043 8.89052 5.94309 7.32842 7.50519ZM379.323 65.2071L319.323 5.20709L320.384 4.14643L380.384 64.1464L379.323 65.2071ZM319.854 5.42676L4.5 5.42677V3.92675L319.854 3.92676L319.854 5.42676Z" fill="#348479"/>
</svg>
